HIERARCHY
ROOT Hips
{
  OFFSET -35.2597 29.1586 114.425
  CHANNELS 6 Xposition Yposition Zposition Zrotation Xrotation Yrotation
  JOINT LeftUpLeg
  {
    OFFSET 8.64259 1.95398 -2.38835
    CHANNELS 3 Zrotation Xrotation Yrotation
    JOINT LeftLeg
    {
      OFFSET 43.7702 0 0
      CHANNELS 3 Zrotation Xrotation Yrotation
      JOINT LeftFoot
      {
        OFFSET 40.6238 0 0
        CHANNELS 3 Zrotation Xrotation Yrotation
        JOINT LeftToeBase
        {
          OFFSET 12.7242 0 0
          CHANNELS 3 Zrotation Xrotation Yrotation
          End Site
          {
            OFFSET 0 0 0
          }
        }
      }
    }
  }
  JOINT RightUpLeg
  {
    OFFSET -8.2249 1.95398 -2.59336
    CHANNELS 3 Zrotation Xrotation Yrotation
    JOINT RightLeg
    {
      OFFSET 43.5653 0 0
      CHANNELS 3 Zrotation Xrotation Yrotation
      JOINT RightFoot
      {
        OFFSET 40.6238 0 0
        CHANNELS 3 Zrotation Xrotation Yrotation
        JOINT RightToeBase
        {
          OFFSET 12.7242 0 0
          CHANNELS 3 Zrotation Xrotation Yrotation
          End Site
          {
            OFFSET 0 0 0
          }
        }
      }
    }
  }
  JOINT Spine
  {
    OFFSET 0.165834 0.87714 6.61349
    CHANNELS 3 Zrotation Xrotation Yrotation
    JOINT Spine1
    {
      OFFSET 7.38963 1.71661e-005 0
      CHANNELS 3 Zrotation Xrotation Yrotation
      JOINT Spine2
      {
        OFFSET 11.9445 1.14441e-005 0
        CHANNELS 3 Zrotation Xrotation Yrotation
        JOINT Spine3
        {
          OFFSET 14.7254 4.19617e-005 0
          CHANNELS 3 Zrotation Xrotation Yrotation
          JOINT Spine4
          {
            OFFSET 10.9679 0 0
            CHANNELS 3 Zrotation Xrotation Yrotation
            JOINT RightShoulder
            {
              OFFSET 2.46616 -1.6653 3.69651
              CHANNELS 3 Zrotation Xrotation Yrotation
              JOINT RightArm
              {
                OFFSET 13.0012 0 0
                CHANNELS 3 Zrotation Xrotation Yrotation
                JOINT RightForeArm
                {
                  OFFSET 28.7848 1.62311e-005 0
                  CHANNELS 3 Zrotation Xrotation Yrotation
                  JOINT RightHand
                  {
                    OFFSET 26.5688 1.62095e-005 0
                    CHANNELS 3 Zrotation Xrotation Yrotation
                    End Site
                    {
                      OFFSET 0 0 0
                    }
                  }
                }
              }
            }
            JOINT LeftShoulder
            {
              OFFSET 2.38034 -1.29275 -3.7523
              CHANNELS 3 Zrotation Xrotation Yrotation
              JOINT LeftArm
              {
                OFFSET 16.3182 6.07031e-005 0
                CHANNELS 3 Zrotation Xrotation Yrotation
                JOINT LeftForeArm
                {
                  OFFSET 27.0901 0 0
                  CHANNELS 3 Zrotation Xrotation Yrotation
                  JOINT LeftHand
                  {
                    OFFSET 24.5451 1.51738e-005 0
                    CHANNELS 3 Zrotation Xrotation Yrotation
                    End Site
                    {
                      OFFSET 0 0 0
                    }
                  }
                }
              }
            }
            JOINT Neck
            {
              OFFSET 5.0226 -0.0266342 0
              CHANNELS 3 Zrotation Xrotation Yrotation
              JOINT Head
              {
                OFFSET 6.69364 2.86102e-005 0
                CHANNELS 3 Zrotation Xrotation Yrotation
                End Site
                {
                  OFFSET 0 0 0
                }
              }
            }
          }
        }
      }
    }
  }
}
MOTION
Frames:	10
Frame Time:	0.0416667
-10.2803 96.0433 147.506 160.296 -77.3753 161.342 -168.912 -11.3223 95.1763 -34.4633 20.3787 0.0682793 78.2958 14.0165 1.49081 30.8777 -3.86384 10.2636 175.602 11.6988 93.8497 -20.9511 -8.4049 1.79311 59.7375 1.63274 0.673046 15.8284 2.82213 6.67296 -0.664087 8.12728 -90.6063 10.6097 -1.60145 -1.06205 -1.06062 -1.64664 -0.99053 -23.5973 -1.20827 -1.49423 -3.5846 -1.20826 -1.49424 89.2819 -37.3317 -105.512 38.9203 11.1966 5.01278 -4.69773 -31.9872 -5.14094 -20.7647 2.89165 -21.3803 -87.0669 -54.2242 83.797 -25.2073 -11.7697 -27.5921 3.34294 35.7449 -4.41212 0.573742 -0.291774 -12.1428 -14.3226 0.592266 -4.23675 -13.5305 0.395853 2.5036 
-9.42554 95.3647 138.335 177.022 -78.3737 174.293 -171.507 -9.74093 88.1026 -30.2034 12.5035 -2.15422 85.0849 17.4554 -1.47834 22.6827 -10.3462 12.1724 175.188 14.7841 90.4697 -15.8049 -7.29475 1.12232 57.539 2.07608 0.223179 23.1369 1.289 3.22229 -0.303616 8.35287 -90.1146 10.1677 -0.657194 -0.17186 -1.50307 -0.664121 -0.14277 -24.0392 -0.575162 -0.361423 -4.02656 -0.575163 -0.361438 88.6712 -38.3457 -106.258 37.4136 10.9423 0.797066 -4.94403 -36.3831 -5.25528 -22.0063 3.42216 -23.2108 -87.3029 -54.5615 83.5112 -23.3742 -12.9412 -27.1468 3.47909 38.3543 -4.55071 0.989984 -0.276599 -10.7037 -12.7773 0.381783 -4.64755 -12.9738 0.329575 1.83836 
-8.06859 96.2422 130.707 -168.322 -76.8429 -171.284 -173.153 -6.38568 85.4026 -29.5032 9.23383 -2.50024 82.6477 15.6793 -0.0945969 17.5345 -10.7676 7.48348 174.298 15.689 89.135 -18.9438 -2.10088 1.25061 59.5491 0.116552 0.424822 20.9016 1.50037 5.07976 0.0827539 8.69584 -90.0805 9.48234 0.128755 -0.170469 -2.1886 0.121135 -0.175972 -24.7238 0.174033 -0.123893 -4.71116 0.174038 -0.12389 87.9904 -37.4632 -107.766 36.6845 10.8023 -1.53987 -5.01547 -37.5815 -5.29173 -20.3955 3.10722 -22.9471 -87.1644 -54.9428 83.7671 -21.759 -14.0984 -22.9541 3.46732 38.072 -4.54249 0.716562 -0.270574 -10.9253 -13.9254 0.447955 -2.81334 -12.0234 0.365736 1.51417 
-6.8578 97.8686 124.724 -156.853 -75.7138 -158.524 -174.847 -4.23259 84.2875 -25.5972 5.0104 -1.53128 77.3635 11.2378 -0.886709 15.7398 -12.3631 8.08397 175.156 17.0849 88.6302 -37.333 -8.89613 -1.11187 61.4995 -0.727998 -0.785472 20.1754 1.7282 5.21733 0.496274 8.74011 -90.2947 9.39548 0.857122 -0.646987 -2.27537 0.827823 -0.684089 -24.8122 1.01194 -0.359462 -4.79956 1.01193 -0.359468 87.6973 -35.2808 -109.105 37.645 10.3873 -1.88462 -5.10213 -38.9886 -5.33762 -21.3357 2.74289 -20.1599 -86.462 -56.3702 84.9662 -20.6469 -14.9168 -14.8345 3.39821 36.2078 -4.48896 1.6659 -0.394982 -13.4704 -16.755 0.629465 0.834622 -11.2529 0.640622 0.0877679 
-6.44085 98.3708 119.85 -146.701 -74.9315 -148.694 -175.54 -1.42022 83.4637 -23.2961 2.7065 -1.61061 73.8914 8.29895 -0.75821 14.1804 -12.8115 7.23152 175.573 14.1724 86.5465 -55.1612 -11.6977 -3.64271 62.4005 -1.52442 -1.22207 20.3252 1.59733 5.406 0.885267 8.62439 -90.2383 9.62962 1.65732 -0.601137 -2.04043 1.62925 -0.673513 -24.5841 1.76133 -0.0751092 -4.57141 1.76134 -0.0750998 86.8341 -34.6608 -110.92 37.2608 10.6909 -0.961362 -5.13448 -39.5003 -5.35554 -21.878 3.049 -21.3725 -85.2682 -56.8124 86.6955 -19.9298 -15.3825 -6.34071 3.34011 35.6117 -4.41389 1.45657 -0.459746 -15.3881 -18.7105 0.696358 2.75249 -9.74396 0.839691 -0.890876 
-6.64406 98.0353 115.491 -141.209 -74.4645 -144.797 -175.035 2.02131 82.998 -23.4634 1.89572 -2.92688 71.2983 6.0693 -1.4235 12.5208 -12.5803 5.41221 174.891 5.56548 83.0598 -61.9373 -15.737 -5.79968 62.1424 -1.66307 -1.50048 21.7114 0.657125 6.54289 1.28807 8.54277 -89.9338 9.79091 2.59759 -0.0753711 -1.87744 2.59176 -0.189709 -24.4324 2.50007 0.709302 -4.41972 2.50007 0.709292 87.19 -34.6752 -110.266 37.7622 10.543 -0.765297 -5.21388 -40.7272 -5.4 -22.6316 3.28007 -21.9774 -84.9565 -57.1035 87.1644 -18.4441 -15.9496 0.567067 3.28291 33.9182 -4.37588 -0.0596559 -0.288762 -14.1669 -19.0003 0.407202 1.92955 -9.89322 0.544423 -1.03915 
-7.40658 97.675 110.049 -139.221 -74.6725 -143.606 -174.672 6.06928 83.4274 -23.1601 2.44551 -3.53623 68.1645 4.15689 -1.65882 9.41657 -14.2489 4.89122 173.621 -5.05644 82.2286 -55.3126 -22.9994 -7.4516 65.8216 -4.4429 -2.97719 22.6756 -0.339908 8.51666 1.51813 8.52462 -89.7873 9.82439 3.1225 0.172197 -1.84279 3.12704 0.0344554 -24.4052 2.92625 1.10347 -4.39257 2.92625 1.10347 87.758 -33.736 -109.596 39.4624 9.72468 -1.75466 -5.18265 -40.2479 -5.38234 -22.0825 2.96051 -20.7701 -84.8802 -58.8506 87.4637 -17.5841 -16.1965 4.07345 3.09572 30.123 -4.16274 0.511919 -0.275528 -11.5083 -19.3809 0.0515271 1.42248 -9.90979 0.209771 -1.5034 
-8.46968 97.0247 102.584 -137.634 -76.3532 -140.749 -175.164 12.342 85.3615 -21.787 3.75765 -2.58503 62.3356 0.575706 -1.86226 8.62609 -14.4055 4.41702 172.19 -11.9418 84.7671 -37.8778 -18.7039 -5.21091 69.0647 -6.88609 -4.16808 38.6791 -5.48258 6.79273 1.60233 8.48997 -89.8372 9.89386 3.26759 0.0606398 -1.77297 3.2671 -0.0833921 -24.3386 3.09815 1.04084 -4.32593 3.09814 1.04083 87.2879 -33.6543 -110.498 39.5649 9.34794 -3.44818 -5.11945 -39.2603 -5.34727 -22.6244 3.19095 -21.5127 -84.7669 -58.7109 87.6041 -18.2016 -16.01 3.41378 3.02924 28.5996 -4.08561 -1.09242 -0.168073 -15.1408 -18.6445 -0.134142 1.03466 -9.54842 0.0352455 -2.00904 
-9.34823 96.342 93.7199 -148.049 -78.6013 -148.194 -176.256 16.3778 88.2789 -16.9977 7.57901 -1.10649 60.0071 -0.0783612 -0.860128 13.5308 -12.1283 5.6803 171.302 -13.2248 88.0547 -27.9121 -15.7631 -1.06724 76.3991 -11.513 -2.74436 38.3986 -4.62316 3.44225 1.4106 8.68279 -90.2467 9.5223 2.70134 -0.698437 -2.14606 2.66798 -0.81673 -24.7042 2.78629 0.146358 -4.69154 2.78629 0.146347 86.7133 -33.3108 -111.713 37.6639 9.8664 -4.72642 -5.16585 -39.9843 -5.3729 -25.0206 3.83748 -22.843 -84.7716 -62.2879 87.9687 -15.3883 -17.053 -2.71849 3.17687 32.129 -4.24393 -0.496189 -0.291084 -16.9086 -17.2564 -0.354159 2.63548 -9.27423 -0.133283 -2.7926 
-10.3563 96.9001 86.3807 175.736 -80.635 175.915 -176.773 14.2027 87.679 -8.26734 7.12123 -1.3282 63.3754 4.41178 -0.0366361 17.8776 -11.911 9.51776 171.615 -9.91236 90.7562 -25.742 -9.64014 1.86634 77.9962 -11.8684 -3.10675 32.4866 -3.30849 7.0017 0.823923 8.85106 -90.3876 9.17718 1.46978 -0.872928 -2.49327 1.42993 -0.936782 -25.0344 1.66415 -0.390754 -5.02179 1.66415 -0.390757 86.9933 -33.9127 -110.94 36.5075 10.4179 -4.22269 -5.14449 -39.6512 -5.36117 -24.4063 3.55712 -21.9914 -85.5256 -60.1949 86.7373 -17.4086 -16.391 -9.90051 3.30323 34.9629 -4.37276 -1.16311 -0.197531 -14.4822 -18.1789 -0.827022 0.68013 -9.72918 -0.699505 -1.71454 
